<svg xmlns="http://www.w3.org/2000/svg" viewBox="0 0 1200 420" role="img" aria-label="Rome trip banner">
  <defs>
    <linearGradient id="bg" x1="0" x2="1" y1="0" y2="1">
      <stop offset="0%" stop-color="#f7efe2"/>
      <stop offset="100%" stop-color="#e8d2b0"/>
    </linearGradient>
    <linearGradient id="sunset" x1="0" x2="0" y1="0" y2="1">
      <stop offset="0%" stop-color="#f4b183"/>
      <stop offset="100%" stop-color="#d97706"/>
    </linearGradient>
  </defs>

  <rect width="1200" height="420" fill="url(#bg)"/>
  <circle cx="1010" cy="92" r="48" fill="#ffd166" opacity="0.95"/>

  <path d="M0 318 C140 278, 265 330, 410 298 C530 270, 690 196, 860 228 C1008 255, 1100 222, 1200 184 L1200 420 L0 420 Z" fill="#c08457" opacity="0.28"/>

  <g fill="#8c2f39">
    <rect x="135" y="208" width="112" height="132" rx="4"/>
    <rect x="164" y="150" width="54" height="58" rx="4"/>
    <rect x="180" y="104" width="22" height="46" rx="3"/>
    <rect x="152" y="236" width="18" height="18" fill="#f6e7cf"/>
    <rect x="188" y="236" width="18" height="18" fill="#f6e7cf"/>
    <rect x="152" y="272" width="18" height="18" fill="#f6e7cf"/>
    <rect x="188" y="272" width="18" height="18" fill="#f6e7cf"/>
    <rect x="214" y="286" width="18" height="54" fill="#6b1f28"/>
  </g>

  <g fill="#6d4c41">
    <rect x="300" y="258" width="544" height="82" rx="12"/>
    <rect x="318" y="168" width="512" height="90" rx="12"/>
    <rect x="350" y="138" width="448" height="32" rx="12"/>
    <rect x="382" y="112" width="384" height="26" rx="10"/>
    <rect x="440" y="88" width="268" height="24" rx="10"/>
  </g>

  <g fill="url(#sunset)">
    <rect x="900" y="185" width="120" height="155" rx="4"/>
    <rect x="930" y="115" width="60" height="70" rx="4"/>
    <rect x="949" y="70" width="22" height="45" rx="3"/>
  </g>

  <path d="M0 350 H1200" stroke="#7c5b46" stroke-width="4" opacity="0.32"/>

  <text x="80" y="82" font-family="Georgia, 'Times New Roman', serif" font-size="28" fill="#8c2f39">Rome family city break</text>
  <text x="80" y="138" font-family="Georgia, 'Times New Roman', serif" font-size="58" font-weight="700" fill="#1f2933">Tania, Eleni &amp; Mat's Rome Trip</text>
  <text x="80" y="186" font-family="Georgia, 'Times New Roman', serif" font-size="24" fill="#334e68">Interactive map, day plans, gluten-free food, and family-friendly notes</text>
</svg>
